<?xml version="1.0" encoding="UTF-8" standalone="no"?>
<svg width="38px" height="38px" viewBox="0 0 38 38" version="1.1" xmlns="http://www.w3.org/2000/svg" xmlns:xlink="http://www.w3.org/1999/xlink" xmlns:sketch="http://www.bohemiancoding.com/sketch/ns">
    <!-- Generator: Sketch 3.3.2 (12043) - http://www.bohemiancoding.com/sketch -->
    <title>Fill 33 Copy</title>
    <desc>Created with Sketch.</desc>
    <defs></defs>
    <g id="Page-1" stroke="none" stroke-width="1" fill="none" fill-rule="evenodd" sketch:type="MSPage">
        <path d="M7.1393221,38 L20.5744438,38 L26.1156166,38 L30.8606779,38 C32.812435,38 34.4975047,37.2880192 35.9158869,35.9135006 C37.2908089,34.5370043 38,32.8500052 38,30.8525034 L38,7.10200895 C38,5.1499948 37.2908089,3.46299573 35.9158869,2.08649943 C34.4975047,0.710003123 32.8558952,0 30.8606779,0 L7.1393221,0 C5.1441048,0 3.50249532,0.710003123 2.08411312,2.08649943 C0.7091911,3.46299573 0,5.1499948 0,7.10200895 L0,30.8525034 C0,32.8500052 0.7091911,34.5370043 2.08411312,35.9135006 C3.50249532,37.2880192 5.1441048,38 7.1393221,38 L7.1393221,38 Z M30.8800741,12.5124389 L29.9423774,12.5124389 C29.5942482,12.5124389 29.1018883,13.0114722 29.1018883,13.330877 L29.1018883,24.9097434 C29.1018883,25.2295408 29.5942482,25.6655569 29.9423774,25.6655569 L30.8800741,25.6655569 L30.8800741,28.4139696 L22.3842973,28.4139696 L22.3842973,25.6655569 L24.1624831,25.6655569 L24.1624831,13.4940149 L24.075352,13.4940149 L19.9228929,28.4139696 L16.7081305,28.4139696 L12.6092146,13.4940149 L12.505487,13.4940149 L12.505487,25.6655569 L14.2836729,25.6655569 L14.2836729,28.4139696 L7.17092951,28.4139696 L7.17092951,25.6655569 L8.08175581,25.6655569 C8.45675545,25.6655569 8.94911535,25.2295408 8.94911535,24.9097434 L8.94911535,13.330877 C8.94911535,13.0114722 8.45675545,12.5124389 8.08175581,12.5124389 L7.17092951,12.5124389 L7.17092951,9.76402623 L16.06502,9.76402623 L18.9851963,20.5613619 L19.0656098,20.5613619 L22.0126565,9.76402623 L30.8800741,9.76402623 L30.8800741,12.5124389 L30.8800741,12.5124389 Z" id="Fill-33-Copy" fill="#FFFFFF" sketch:type="MSShapeGroup"></path>
    </g>
</svg>