<?xml version="1.0" encoding="UTF-8" standalone="no"?>
<svg width="38px" height="38px" viewBox="0 0 38 38" version="1.1" xmlns="http://www.w3.org/2000/svg" xmlns:xlink="http://www.w3.org/1999/xlink" xmlns:sketch="http://www.bohemiancoding.com/sketch/ns">
    <!-- Generator: Sketch 3.3.2 (12043) - http://www.bohemiancoding.com/sketch -->
    <title>Fill 189</title>
    <desc>Created with Sketch.</desc>
    <defs></defs>
    <g id="Page-1" stroke="none" stroke-width="1" fill="none" fill-rule="evenodd" sketch:type="MSPage">
        <path d="M2.08411312,35.9135006 C3.50447078,37.2880192 5.1441048,38 7.1393221,38 L30.8626534,38 C32.8578707,38 34.4975047,37.2880192 35.9158869,35.9135006 C37.2908089,34.5370043 38,32.8500052 38,30.8525034 L38,7.10398668 C38,5.1499948 37.2908089,3.46299573 35.9158869,2.08649943 C34.4975047,0.710003123 32.8578707,0 30.8626534,0 L7.1393221,0 C5.1441048,0 3.50447078,0.710003123 2.08411312,2.08649943 C0.711166563,3.46299573 0,5.1499948 0,7.10398668 L0,30.8525034 C0,32.8500052 0.711166563,34.5370043 2.08411312,35.9135006 L2.08411312,35.9135006 L2.08411312,35.9135006 Z M7.58380121,27.8344957 C9.97806197,27.8344957 12.1056353,27.0790049 14.0573924,25.613511 C12.9037222,25.570001 11.9278436,25.2594983 11.0408609,24.5494952 C10.1538781,23.883002 9.53358287,23.0385136 9.17997505,21.9744978 C9.62247869,22.0634954 9.93262633,22.1070053 10.1538781,22.1070053 C10.5094614,22.1070053 10.9539405,22.0180077 11.3964442,21.8855002 C10.1993138,21.663995 9.17997505,21.0864994 8.38188813,20.1095035 C7.53836556,19.1325075 7.1393221,18.0230041 7.1393221,16.780993 L7.1393221,16.7355054 C8.02630485,17.1804934 8.82439177,17.3565109 9.62247869,17.4019985 C8.11520067,16.3814927 7.36057392,14.9595087 7.36057392,13.0510045 C7.36057392,12.1194962 7.58380121,11.2750078 8.07174049,10.4324971 C9.40122687,12.0304986 10.9539405,13.3179973 12.8148264,14.2949932 C14.6776877,15.2265015 16.672905,15.7585094 18.8004783,15.8929947 C18.7135579,15.5824919 18.6681223,15.1829916 18.6681223,14.6944936 C18.6681223,13.2725096 19.1995217,12.0304986 20.2208359,11.0099927 C21.194739,9.98750911 22.4373051,9.49901114 23.8556873,9.49901114 C25.4084009,9.49901114 26.6489915,10.0329968 27.6703057,11.1425003 C28.7785402,10.9209951 29.8867748,10.4760071 30.9515492,9.85500156 C30.5525057,11.1425003 29.797879,12.1194962 28.6896444,12.7405017 C29.7524433,12.6079942 30.7283219,12.3410014 31.6607403,11.941501 C30.9515492,12.9620069 30.1080266,13.8500052 29.0432522,14.605496 C29.0886879,14.7834912 29.0886879,15.0049964 29.0886879,15.2700114 C29.0886879,16.6465078 28.8674361,18.066514 28.4683926,19.4430103 C28.0693491,20.8195066 27.4470784,22.1505152 26.6489915,23.4380139 C25.8074444,24.7255126 24.7881056,25.8350161 23.6344354,26.8120121 C22.4807652,27.789008 21.1078187,28.5880087 19.5116448,29.1655043 C17.8700354,29.7429999 16.1415055,30.0535027 14.3221044,30.0535027 C11.4399043,30.0535027 8.78093159,29.2980119 6.34123518,27.7454981 C6.74027864,27.789008 7.1393221,27.8344957 7.58380121,27.8344957 L7.58380121,27.8344957 L7.58380121,27.8344957 Z" id="Fill-189" fill="#FFFFFF" sketch:type="MSShapeGroup"></path>
    </g>
</svg>