<?xml version="1.0" encoding="UTF-8" standalone="no"?>
<svg width="38px" height="38px" viewBox="0 0 38 38" version="1.1" xmlns="http://www.w3.org/2000/svg" xmlns:xlink="http://www.w3.org/1999/xlink" xmlns:sketch="http://www.bohemiancoding.com/sketch/ns">
    <!-- Generator: Sketch 3.3.2 (12043) - http://www.bohemiancoding.com/sketch -->
    <title>Fill 33</title>
    <desc>Created with Sketch.</desc>
    <defs></defs>
    <g id="Page-1" stroke="none" stroke-width="1" fill="none" fill-rule="evenodd" sketch:type="MSPage">
        <path d="M7.1393221,38 L20.5744438,38 L20.5744438,22.949516 L15.0312955,22.949516 L15.0312955,17.4019985 L20.5744438,17.4019985 L20.5744438,13.2725096 C20.5744438,10.9209951 21.2381992,9.05600083 22.6131212,7.72499219 C23.9445831,6.39200583 25.7620087,5.72749037 27.9784779,5.72749037 C29.3968601,5.72749037 30.8606779,5.81451025 32.4568517,5.94899552 L32.4568517,11.0535027 L29.1756082,11.0989903 C28.0673737,11.0989903 27.2692868,11.3204955 26.8267831,11.8089934 C26.3388438,12.2974914 26.1156166,12.9620069 26.1156166,13.8500052 L26.1156166,17.4019985 L31.8800166,17.4019985 L31.1273654,22.949516 L26.1156166,22.949516 L26.1156166,38 L30.8606779,38 C32.812435,38 34.4975047,37.2880192 35.9158869,35.9135006 C37.2908089,34.5370043 38,32.8500052 38,30.8525034 L38,7.10200895 C38,5.1499948 37.2908089,3.46299573 35.9158869,2.08649943 C34.4975047,0.710003123 32.8558952,0 30.8606779,0 L7.1393221,0 C5.1441048,0 3.50249532,0.710003123 2.08411312,2.08649943 C0.7091911,3.46299573 0,5.1499948 0,7.10200895 L0,30.8525034 C0,32.8500052 0.7091911,34.5370043 2.08411312,35.9135006 C3.50249532,37.2880192 5.1441048,38 7.1393221,38 Z" id="Fill-33" fill="#FFFFFF" sketch:type="MSShapeGroup"></path>
    </g>
</svg>